<svg xmlns="http://www.w3.org/2000/svg" width="762.351" height="754.792" viewBox="0 0 571.764 566.094"><defs><style>.cls-1{fill:#fff}</style></defs><g id="Layer_2" data-name="Layer 2"><g id="Layer_1-2" data-name="Layer 1"><path class="cls-1" d="M285.882 289.688a6.641 6.641 0 1 1 6.698-6.641 6.677 6.677 0 0 1-6.698 6.641zm0-11.282a4.641 4.641 0 1 0 4.698 4.64 4.675 4.675 0 0 0-4.698-4.64z"/><path class="cls-1" d="M285.882 295.33a12.283 12.283 0 1 1 12.395-12.283 12.353 12.353 0 0 1-12.395 12.282zm0-22.565a10.283 10.283 0 1 0 10.395 10.282 10.35 10.35 0 0 0-10.395-10.282z"/><path class="cls-1" d="M285.882 300.97a17.924 17.924 0 1 1 18.093-17.923 18.029 18.029 0 0 1-18.093 17.923zm0-33.846a15.924 15.924 0 1 0 16.093 15.923 16.027 16.027 0 0 0-16.093-15.923z"/><path class="cls-1" d="M285.882 306.61a23.565 23.565 0 1 1 23.79-23.563 23.705 23.705 0 0 1-23.79 23.564zm0-45.127a21.565 21.565 0 1 0 21.79 21.564 21.703 21.703 0 0 0-21.79-21.564z"/><path class="cls-1" d="M285.882 312.252a29.206 29.206 0 1 1 29.488-29.205 29.381 29.381 0 0 1-29.488 29.205zm0-56.41a27.206 27.206 0 1 0 27.488 27.205 27.378 27.378 0 0 0-27.488-27.205z"/><path class="cls-1" d="M285.882 317.893a34.847 34.847 0 1 1 35.185-34.846 35.057 35.057 0 0 1-35.185 34.846zm0-67.692a32.847 32.847 0 1 0 33.185 32.846 33.054 33.054 0 0 0-33.185-32.846z"/><path class="cls-1" d="M285.882 323.534a40.489 40.489 0 1 1 40.884-40.487 40.733 40.733 0 0 1-40.884 40.487zm0-78.973a38.489 38.489 0 1 0 38.884 38.486 38.73 38.73 0 0 0-38.884-38.487z"/><path class="cls-1" d="M285.882 329.174c-25.685 0-46.581-20.693-46.581-46.127s20.896-46.128 46.58-46.128 46.582 20.693 46.582 46.128-20.897 46.127-46.581 46.127zm0-90.255c-24.582 0-44.581 19.796-44.581 44.128s19.999 44.127 44.58 44.127 44.582-19.795 44.582-44.127-20-44.128-44.581-44.128z"/><path class="cls-1" d="M285.882 334.816c-28.827 0-52.279-23.224-52.279-51.77s23.452-51.768 52.279-51.768 52.278 23.224 52.278 51.769-23.452 51.769-52.278 51.769zm0-101.538c-27.724 0-50.279 22.327-50.279 49.769s22.555 49.769 50.279 49.769 50.278-22.326 50.278-49.77-22.555-49.768-50.278-49.768z"/><path class="cls-1" d="M285.882 340.457c-31.968 0-57.977-25.754-57.977-57.41s26.009-57.41 57.977-57.41 57.976 25.754 57.976 57.41-26.007 57.41-57.976 57.41zm0-112.82c-30.866 0-55.977 24.857-55.977 55.41s25.111 55.41 55.977 55.41 55.976-24.856 55.976-55.41-25.11-55.41-55.976-55.41z"/><path class="cls-1" d="M285.882 346.097c-35.11 0-63.674-28.284-63.674-63.05s28.564-63.05 63.674-63.05 63.674 28.284 63.674 63.05-28.564 63.05-63.674 63.05zm0-124.1c-34.007 0-61.674 27.387-61.674 61.05s27.667 61.05 61.674 61.05 61.674-27.388 61.674-61.05-27.667-61.05-61.674-61.05z"/><path class="cls-1" d="M285.882 351.739c-38.252 0-69.372-30.815-69.372-68.692s31.12-68.691 69.372-68.691 69.372 30.814 69.372 68.69-31.12 68.693-69.372 68.693zm0-135.383c-37.15 0-67.372 29.917-67.372 66.69s30.223 66.693 67.372 66.693 67.372-29.918 67.372-66.692-30.223-66.692-67.372-66.692z"/><path class="cls-1" d="M285.882 357.38c-41.394 0-75.07-33.346-75.07-74.333s33.676-74.332 75.07-74.332 75.07 33.345 75.07 74.332-33.677 74.332-75.07 74.332zm0-146.665c-40.29 0-73.07 32.448-73.07 72.332s32.78 72.332 73.07 72.332 73.07-32.448 73.07-72.332-32.78-72.332-73.07-72.332z"/><path class="cls-1" d="M285.882 363.02c-44.535 0-80.767-35.876-80.767-79.973s36.232-79.973 80.767-79.973 80.766 35.876 80.766 79.973-36.231 79.973-80.766 79.973zm0-157.946c-43.432 0-78.767 34.978-78.767 77.973s35.335 77.973 78.767 77.973 78.766-34.978 78.766-77.973-35.335-77.973-78.766-77.973z"/><path class="cls-1" d="M285.882 368.662c-47.677 0-86.465-38.407-86.465-85.615s38.788-85.614 86.465-85.614 86.465 38.406 86.465 85.614-38.788 85.615-86.465 85.615zm0-169.23c-46.574 0-84.465 37.51-84.465 83.615s37.891 83.615 84.465 83.615 84.465-37.51 84.465-83.615-37.89-83.614-84.465-83.614z"/><path class="cls-1" d="M285.882 374.302c-50.819 0-92.162-40.936-92.162-91.255s41.343-91.255 92.162-91.255 92.162 40.937 92.162 91.255-41.344 91.255-92.162 91.255zm0-180.51c-49.716 0-90.162 40.04-90.162 89.255s40.446 89.255 90.162 89.255 90.162-40.04 90.162-89.255-40.446-89.255-90.162-89.255z"/><path class="cls-1" d="M285.882 379.943c-53.96 0-97.86-43.468-97.86-96.896s43.9-96.896 97.86-96.896 97.86 43.467 97.86 96.896-43.9 96.896-97.86 96.896zm0-191.792c-52.858 0-95.86 42.57-95.86 94.896s43.002 94.896 95.86 94.896 95.86-42.57 95.86-94.896-43.003-94.896-95.86-94.896z"/><path class="cls-1" d="M285.882 385.584c-57.102 0-103.558-45.998-103.558-102.537S228.78 180.51 285.882 180.51 389.44 226.508 389.44 283.047s-46.457 102.537-103.558 102.537zm0-203.074c-56 0-101.558 45.1-101.558 100.537s45.559 100.537 101.558 100.537 101.558-45.1 101.558-100.537S341.88 182.51 285.882 182.51z"/><path class="cls-1" d="M285.882 391.225c-60.243 0-109.255-48.528-109.255-108.178s49.012-108.178 109.255-108.178 109.255 48.529 109.255 108.178-49.012 108.178-109.255 108.178zm0-214.356c-59.14 0-107.255 47.632-107.255 106.178s48.114 106.178 107.255 106.178 107.255-47.632 107.255-106.178-48.115-106.178-107.255-106.178z"/><path class="cls-1" d="M285.882 396.866c-63.385 0-114.953-51.059-114.953-113.82s51.568-113.818 114.953-113.818 114.953 51.06 114.953 113.819-51.567 113.819-114.953 113.819zm0-225.638c-62.282 0-112.953 50.162-112.953 111.819S223.6 394.866 285.882 394.866s112.953-50.162 112.953-111.82-50.67-111.818-112.953-111.818z"/><path class="cls-1" d="M285.882 402.507c-66.527 0-120.65-53.59-120.65-119.46s54.123-119.46 120.65-119.46 120.65 53.59 120.65 119.46-54.123 119.46-120.65 119.46zm0-236.92c-65.424 0-118.65 52.692-118.65 117.46s53.226 117.46 118.65 117.46 118.65-52.693 118.65-117.46-53.226-117.46-118.65-117.46z"/><path class="cls-1" d="M285.882 408.148c-69.669 0-126.348-56.12-126.348-125.101s56.68-125.1 126.348-125.1 126.348 56.12 126.348 125.1-56.68 125.1-126.348 125.1zm0-248.202c-68.566 0-124.348 55.223-124.348 123.1s55.782 123.102 124.348 123.102S410.23 350.925 410.23 283.047s-55.783-123.1-124.348-123.1z"/><path class="cls-1" d="M285.882 413.789c-72.81 0-132.046-58.65-132.046-130.742s59.236-130.742 132.046-130.742 132.046 58.65 132.046 130.742-59.236 130.742-132.046 130.742zm0-259.484c-71.708 0-130.046 57.754-130.046 128.742s58.338 128.742 130.046 128.742 130.046-57.753 130.046-128.742-58.338-128.742-130.046-128.742z"/><path class="cls-1" d="M285.882 419.43c-75.952 0-137.743-61.182-137.743-136.383s61.791-136.382 137.743-136.382 137.743 61.18 137.743 136.382-61.791 136.382-137.743 136.382zm0-270.765c-74.85 0-135.743 60.283-135.743 134.382s60.894 134.382 135.743 134.382 135.743-60.283 135.743-134.382-60.894-134.382-135.743-134.382z"/><path class="cls-1" d="M285.882 425.07c-79.094 0-143.441-63.711-143.441-142.023s64.347-142.024 143.44-142.024 143.442 63.712 143.442 142.024S364.976 425.07 285.882 425.07zm0-282.047c-77.99 0-141.441 62.815-141.441 140.024S207.89 423.07 285.88 423.07s141.442-62.815 141.442-140.024-63.45-140.024-141.441-140.024z"/><path class="cls-1" d="M285.882 430.711c-82.236 0-149.139-66.242-149.139-147.664s66.904-147.665 149.139-147.665S435.02 201.625 435.02 283.047 368.117 430.71 285.882 430.71zm0-293.329c-81.133 0-147.139 65.345-147.139 145.665S204.75 428.71 285.882 428.71 433.02 363.367 433.02 283.047s-66.005-145.665-147.138-145.665z"/><path class="cls-1" d="M285.882 436.352c-85.377 0-154.837-68.772-154.837-153.305s69.46-153.305 154.837-153.305 154.836 68.772 154.836 153.305-69.46 153.305-154.836 153.305zm0-304.61c-84.275 0-152.837 67.875-152.837 151.305s68.562 151.305 152.837 151.305 152.836-67.874 152.836-151.305-68.562-151.305-152.836-151.305z"/><path class="cls-1" d="M285.882 441.994c-88.519 0-160.534-71.304-160.534-158.947S197.363 124.1 285.882 124.1s160.534 71.303 160.534 158.946S374.4 441.994 285.882 441.994zm0-315.893c-87.416 0-158.534 70.405-158.534 156.946s71.118 156.947 158.534 156.947 158.534-70.407 158.534-156.947S373.298 126.1 285.882 126.1z"/><path class="cls-1" d="M285.882 447.634c-91.66 0-166.232-73.834-166.232-164.587S194.222 118.46 285.882 118.46s166.231 73.833 166.231 164.587-74.571 164.587-166.231 164.587zm0-327.175c-90.558 0-164.232 72.937-164.232 162.588s73.674 162.587 164.232 162.587 164.231-72.936 164.231-162.587S376.44 120.46 285.882 120.46z"/><path class="cls-1" d="M285.882 453.275c-94.802 0-171.93-76.364-171.93-170.228s77.128-170.228 171.93-170.228S457.81 189.183 457.81 283.047s-77.126 170.228-171.928 170.228zm0-338.456c-93.7 0-169.93 75.467-169.93 168.228s76.23 168.228 169.93 168.228S455.81 375.808 455.81 283.047s-76.229-168.228-169.928-168.228z"/><path class="cls-1" d="M285.882 458.916c-97.944 0-177.627-78.894-177.627-175.87s79.683-175.868 177.627-175.868 177.627 78.894 177.627 175.869-79.684 175.87-177.627 175.87zm0-349.738c-96.841 0-175.627 77.997-175.627 173.869s78.786 173.87 175.627 173.87 175.627-77.998 175.627-173.87-78.786-173.87-175.627-173.87z"/><path class="cls-1" d="M285.882 464.557c-101.086 0-183.324-81.425-183.324-181.51s82.238-181.51 183.324-181.51 183.324 81.425 183.324 181.51-82.24 181.51-183.324 181.51zm0-361.02c-99.983 0-181.324 80.528-181.324 179.51s81.341 179.51 181.324 179.51 181.324-80.528 181.324-179.51-81.342-179.51-181.324-179.51z"/><path class="cls-1" d="M285.882 470.198c-104.227 0-189.022-83.955-189.022-187.151S181.655 95.896 285.882 95.896s189.022 83.956 189.022 187.15-84.795 187.152-189.022 187.152zm0-372.302c-103.124 0-187.022 83.058-187.022 185.15s83.898 185.152 187.022 185.152 187.022-83.059 187.022-185.151S389.007 97.896 285.882 97.896z"/><path class="cls-1" d="M285.882 475.84c-107.369 0-194.72-86.487-194.72-192.793s87.35-192.792 194.72-192.792 194.72 86.486 194.72 192.792-87.351 192.792-194.72 192.792zm0-383.585c-106.266 0-192.72 85.589-192.72 190.792s86.453 190.792 192.72 190.792 192.72-85.588 192.72-190.792-86.454-190.792-192.72-190.792z"/><path class="cls-1" d="M285.882 481.48c-110.51 0-200.418-89.017-200.418-198.433S175.371 84.614 285.882 84.614s200.417 89.016 200.417 198.433S396.393 481.48 285.882 481.48zm0-394.866c-109.408 0-198.418 88.12-198.418 196.433s89.01 196.433 198.418 196.433 198.417-88.12 198.417-196.433-89.01-196.433-198.417-196.433z"/><path class="cls-1" d="M285.882 487.12c-113.652 0-206.115-91.546-206.115-204.073S172.23 78.973 285.882 78.973s206.115 91.547 206.115 204.074S399.534 487.12 285.882 487.12zm0-406.147c-112.55 0-204.115 90.65-204.115 202.074S173.333 485.12 285.882 485.12s204.115-90.65 204.115-202.074S398.432 80.973 285.882 80.973z"/><path class="cls-1" d="M285.882 492.762c-116.794 0-211.813-94.078-211.813-209.715S169.088 73.332 285.882 73.332s211.812 94.078 211.812 209.715-95.018 209.715-211.812 209.715zm0-417.43c-115.691 0-209.813 93.18-209.813 207.715s94.122 207.715 209.813 207.715 209.812-93.18 209.812-207.715-94.12-207.715-209.812-207.715z"/><path class="cls-1" d="M285.882 498.403a217.184 217.184 0 0 1-153.8-63.073 213.85 213.85 0 0 1 0-304.566 219.052 219.052 0 0 1 307.6 0 213.85 213.85 0 0 1 0 304.566 217.186 217.186 0 0 1-153.8 63.073zm0-428.712a215.198 215.198 0 0 0-152.392 62.494 211.85 211.85 0 0 0 0 301.724 217.052 217.052 0 0 0 304.785 0 211.85 211.85 0 0 0 0-301.724 215.2 215.2 0 0 0-152.393-62.494z"/><path class="cls-1" d="M285.882 504.043a222.875 222.875 0 0 1-157.828-64.724 219.452 219.452 0 0 1 0-312.544 224.79 224.79 0 0 1 315.656 0 219.452 219.452 0 0 1 0 312.544 222.876 222.876 0 0 1-157.828 64.724zm0-439.993a220.889 220.889 0 0 0-156.422 64.146 217.453 217.453 0 0 0 0 309.702 222.792 222.792 0 0 0 312.842 0 217.452 217.452 0 0 0 0-309.702 220.887 220.887 0 0 0-156.42-64.146z"/><path class="cls-1" d="M285.882 509.685a228.565 228.565 0 0 1-161.857-66.377 225.055 225.055 0 0 1 0-320.522 230.53 230.53 0 0 1 323.714 0 225.056 225.056 0 0 1 0 320.522 228.566 228.566 0 0 1-161.857 66.377zm0-451.276a226.577 226.577 0 0 0-160.45 65.798 223.054 223.054 0 0 0 0 317.68 228.527 228.527 0 0 0 320.9 0 223.054 223.054 0 0 0 0-317.68 226.579 226.579 0 0 0-160.45-65.798z"/><path class="cls-1" d="M285.882 515.326a234.254 234.254 0 0 1-165.886-68.03C75.683 403.424 51.28 345.092 51.28 283.046s24.404-120.377 68.717-164.249a236.266 236.266 0 0 1 331.772 0c44.313 43.872 68.717 102.204 68.717 164.25s-24.404 120.378-68.717 164.25a234.253 234.253 0 0 1-165.886 68.029zm0-462.558a232.268 232.268 0 0 0-164.48 67.45 228.656 228.656 0 0 0 0 325.658 234.269 234.269 0 0 0 328.96 0 228.656 228.656 0 0 0 0-325.657 232.268 232.268 0 0 0-164.48-67.45z"/><path class="cls-1" d="M285.882 520.966a239.944 239.944 0 0 1-169.915-69.681c-45.389-44.938-70.386-104.686-70.386-168.238s24.997-123.3 70.386-168.238a242.006 242.006 0 0 1 339.83 0c45.389 44.937 70.386 104.685 70.386 168.238s-24.997 123.3-70.386 168.238a239.946 239.946 0 0 1-169.915 69.681zm0-473.839a237.957 237.957 0 0 0-168.508 69.103c-45.007 44.56-69.793 103.802-69.793 166.817s24.786 122.258 69.793 166.817a240.006 240.006 0 0 0 337.016 0c45.006-44.559 69.793-103.803 69.793-166.817S499.397 160.789 454.39 116.23a237.957 237.957 0 0 0-168.508-69.103z"/><path class="cls-1" d="M285.882 526.608a245.635 245.635 0 0 1-173.944-71.334C65.473 409.27 39.883 348.106 39.883 283.047s25.59-126.224 72.055-172.227a247.744 247.744 0 0 1 347.887 0c46.465 46.003 72.055 107.168 72.055 172.227s-25.59 126.224-72.055 172.227a245.635 245.635 0 0 1-173.943 71.334zm0-485.122a243.645 243.645 0 0 0-172.537 70.755c-46.083 45.625-71.462 106.284-71.462 170.806s25.38 125.181 71.462 170.806a245.743 245.743 0 0 0 345.073 0c46.083-45.625 71.462-106.285 71.462-170.806s-25.379-125.181-71.462-170.806a243.646 243.646 0 0 0-172.536-70.755z"/><path class="cls-1" d="M285.882 532.249a251.318 251.318 0 0 1-177.972-72.987c-47.542-47.068-73.724-109.65-73.724-176.215S60.368 153.9 107.91 106.83a253.481 253.481 0 0 1 355.945 0c47.54 47.069 73.723 109.65 73.723 176.216s-26.182 129.147-73.723 176.215a251.32 251.32 0 0 1-177.973 72.987zm0-496.404a249.335 249.335 0 0 0-176.566 72.407c-47.158 46.69-73.13 108.767-73.13 174.795s25.972 128.104 73.13 174.794a251.482 251.482 0 0 0 353.131 0c47.16-46.69 73.131-108.766 73.131-174.794s-25.972-128.105-73.13-174.795a249.335 249.335 0 0 0-176.566-72.407z"/><path class="cls-1" d="M285.882 537.89a257.012 257.012 0 0 1-182.002-74.638C55.263 415.118 28.488 351.12 28.488 283.047s26.775-132.07 75.392-180.204a259.22 259.22 0 0 1 364.002 0c48.619 48.133 75.393 112.131 75.393 180.204s-26.774 132.07-75.392 180.204a257.01 257.01 0 0 1-182.001 74.638zm0-507.685a255.023 255.023 0 0 0-180.594 74.059c-48.235 47.755-74.8 111.248-74.8 178.783s26.565 131.028 74.8 178.783a257.219 257.219 0 0 0 361.188 0c48.235-47.755 74.8-111.248 74.8-178.783s-26.565-131.028-74.8-178.783a255.022 255.022 0 0 0-180.594-74.06z"/><path class="cls-1" d="M285.882 543.53c-70.273 0-136.34-27.093-186.03-76.29C50.158 418.042 22.79 352.628 22.79 283.048S50.158 148.053 99.85 98.854c49.692-49.197 115.758-76.29 186.03-76.29s136.34 27.094 186.03 76.29c49.695 49.2 77.062 114.614 77.062 184.193s-27.367 134.995-77.061 184.194c-49.691 49.196-115.758 76.29-186.03 76.29zm0-518.966c-69.742 0-135.31 26.888-184.623 75.71C51.947 149.097 24.79 214.006 24.79 283.048s27.156 133.951 76.468 182.772c49.314 48.823 114.881 75.712 184.623 75.712s135.308-26.889 184.623-75.712c49.311-48.82 76.469-113.73 76.469-182.772s-27.158-133.951-76.47-182.772c-49.314-48.823-114.88-75.712-184.622-75.712z"/><path class="cls-1" d="M285.882 549.171c-71.794 0-139.292-27.68-190.06-77.942-50.77-50.265-78.73-117.096-78.73-188.182s27.96-137.917 78.73-188.182c50.768-50.262 118.266-77.943 190.06-77.943S425.174 44.603 475.94 94.865c50.77 50.265 78.73 117.096 78.73 188.182s-27.96 137.917-78.73 188.182c-50.766 50.262-118.264 77.942-190.058 77.942zm0-530.249c-71.264 0-138.262 27.475-188.652 77.364-50.388 49.886-78.137 116.213-78.137 186.76s27.75 136.875 78.137 186.76c50.39 49.89 117.388 77.365 188.652 77.365s138.262-27.474 188.651-77.364c50.388-49.886 78.138-116.212 78.138-186.76s-27.75-136.875-78.138-186.76c-50.39-49.89-117.387-77.365-188.651-77.365z"/><path class="cls-1" d="M285.882 554.812c-73.316 0-142.245-28.268-194.088-79.595-51.846-51.33-80.399-119.577-80.399-192.17s28.553-140.84 80.399-192.17c51.843-51.328 120.772-79.595 194.088-79.595S428.127 39.55 479.97 90.876c51.846 51.33 80.398 119.578 80.398 192.17s-28.552 140.84-80.398 192.17c-51.843 51.328-120.772 79.596-194.088 79.596zm0-541.53c-72.786 0-141.215 28.062-192.68 79.016-51.465 50.951-79.807 118.694-79.807 190.749s28.342 139.797 79.806 190.75c51.467 50.954 119.895 79.015 192.68 79.015s141.216-28.061 192.682-79.015c51.463-50.951 79.805-118.694 79.805-190.75s-28.342-139.798-79.806-190.75c-51.465-50.954-119.894-79.015-192.68-79.015z"/><path class="cls-1" d="M285.882 560.454c-74.838 0-145.197-28.855-198.117-81.247-52.922-52.396-82.067-122.06-82.067-196.16s29.145-143.764 82.067-196.16c52.92-52.392 123.279-81.246 198.117-81.246s145.197 28.854 198.117 81.247c52.922 52.395 82.067 122.06 82.067 196.159S536.921 426.81 484 479.207c-52.92 52.392-123.279 81.247-198.117 81.247zm0-552.813c-74.308 0-144.167 28.648-196.71 80.668-52.54 52.017-81.474 121.176-81.474 194.738s28.935 142.721 81.474 194.738c52.543 52.02 122.402 80.669 196.71 80.669s144.167-28.649 196.71-80.67c52.54-52.016 81.474-121.175 81.474-194.737s-28.934-142.721-81.474-194.738C430.049 36.29 360.19 7.641 285.882 7.641z"/><path class="cls-1" d="M285.882 566.094c-76.36 0-148.15-29.44-202.146-82.9C29.738 429.735 0 358.655 0 283.048S29.738 136.36 83.736 82.899C137.732 29.44 209.522 0 285.882 0s148.15 29.44 202.145 82.899c53.998 53.46 83.737 124.541 83.737 200.148s-29.739 146.688-83.737 200.148c-53.995 53.459-125.785 82.9-202.145 82.9zm0-564.094c-75.83 0-147.12 29.235-200.738 82.32C31.528 137.403 2 207.979 2 283.047s29.528 145.645 83.144 198.727c53.618 53.085 124.908 82.32 200.738 82.32s147.12-29.235 200.738-82.32c53.616-53.082 83.144-123.658 83.144-198.727S540.236 137.403 486.62 84.32C433.002 31.235 361.71 2 285.882 2z"/></g></g></svg>