<svg xmlns="http://www.w3.org/2000/svg" viewBox="0 0 901 901">
  <defs>
    <style>
      .a {
        fill: #fff;
      }
    </style>
  </defs>
  <rect class="a" width="901" height="1"/>
  <rect class="a" y="18" width="901" height="1"/>
  <rect class="a" y="36" width="901" height="1"/>
  <rect class="a" y="54" width="901" height="1"/>
  <rect class="a" y="72" width="901" height="1"/>
  <rect class="a" y="90" width="901" height="1"/>
  <rect class="a" y="108" width="901" height="1"/>
  <rect class="a" y="126" width="901" height="1"/>
  <rect class="a" y="144" width="901" height="1"/>
  <rect class="a" y="162" width="901" height="1"/>
  <rect class="a" y="180" width="901" height="1"/>
  <rect class="a" y="198" width="901" height="1"/>
  <rect class="a" y="216" width="901" height="1"/>
  <rect class="a" y="234" width="901" height="1"/>
  <rect class="a" y="252" width="901" height="1"/>
  <rect class="a" y="270" width="901" height="1"/>
  <rect class="a" y="288" width="901" height="1"/>
  <rect class="a" y="306" width="901" height="1"/>
  <rect class="a" y="324" width="901" height="1"/>
  <rect class="a" y="342" width="901" height="1"/>
  <rect class="a" y="360" width="901" height="1"/>
  <rect class="a" y="378" width="901" height="1"/>
  <rect class="a" y="396" width="901" height="1"/>
  <rect class="a" y="414" width="901" height="1"/>
  <rect class="a" y="432" width="901" height="1"/>
  <rect class="a" y="450" width="901" height="1"/>
  <rect class="a" y="468" width="901" height="1"/>
  <rect class="a" y="486" width="901" height="1"/>
  <rect class="a" y="504" width="901" height="1"/>
  <rect class="a" y="522" width="901" height="1"/>
  <rect class="a" y="540" width="901" height="1"/>
  <rect class="a" y="558" width="901" height="1"/>
  <rect class="a" y="576" width="901" height="1"/>
  <rect class="a" y="594" width="901" height="1"/>
  <rect class="a" y="612" width="901" height="1"/>
  <rect class="a" y="630" width="901" height="1"/>
  <rect class="a" y="648" width="901" height="1"/>
  <rect class="a" y="666" width="901" height="1"/>
  <rect class="a" y="684" width="901" height="1"/>
  <rect class="a" y="702" width="901" height="1"/>
  <rect class="a" y="720" width="901" height="1"/>
  <rect class="a" y="738" width="901" height="1"/>
  <rect class="a" y="756" width="901" height="1"/>
  <rect class="a" y="774" width="901" height="1"/>
  <rect class="a" y="792" width="901" height="1"/>
  <rect class="a" y="810" width="901" height="1"/>
  <rect class="a" y="828" width="901" height="1"/>
  <rect class="a" y="846" width="901" height="1"/>
  <rect class="a" y="864" width="901" height="1"/>
  <rect class="a" y="882" width="901" height="1"/>
  <rect class="a" y="900" width="901" height="1"/>
  <rect class="a" width="1" height="901"/>
  <rect class="a" x="18" width="1" height="901"/>
  <rect class="a" x="36" width="1" height="901"/>
  <rect class="a" x="54" width="1" height="901"/>
  <rect class="a" x="72" width="1" height="901"/>
  <rect class="a" x="90" width="1" height="901"/>
  <rect class="a" x="108" width="1" height="901"/>
  <rect class="a" x="126" width="1" height="901"/>
  <rect class="a" x="144" width="1" height="901"/>
  <rect class="a" x="162" width="1" height="901"/>
  <rect class="a" x="180" width="1" height="901"/>
  <rect class="a" x="198" width="1" height="901"/>
  <rect class="a" x="216" width="1" height="901"/>
  <rect class="a" x="234" width="1" height="901"/>
  <rect class="a" x="252" width="1" height="901"/>
  <rect class="a" x="270" width="1" height="901"/>
  <rect class="a" x="288" width="1" height="901"/>
  <rect class="a" x="306" width="1" height="901"/>
  <rect class="a" x="324" width="1" height="901"/>
  <rect class="a" x="342" width="1" height="901"/>
  <rect class="a" x="360" width="1" height="901"/>
  <rect class="a" x="378" width="1" height="901"/>
  <rect class="a" x="396" width="1" height="901"/>
  <rect class="a" x="414" width="1" height="901"/>
  <rect class="a" x="432" width="1" height="901"/>
  <rect class="a" x="450" width="1" height="901"/>
  <rect class="a" x="468" width="1" height="901"/>
  <rect class="a" x="486" width="1" height="901"/>
  <rect class="a" x="504" width="1" height="901"/>
  <rect class="a" x="522" width="1" height="901"/>
  <rect class="a" x="540" width="1" height="901"/>
  <rect class="a" x="558" width="1" height="901"/>
  <rect class="a" x="576" width="1" height="901"/>
  <rect class="a" x="594" width="1" height="901"/>
  <rect class="a" x="612" width="1" height="901"/>
  <rect class="a" x="630" width="1" height="901"/>
  <rect class="a" x="648" width="1" height="901"/>
  <rect class="a" x="666" width="1" height="901"/>
  <rect class="a" x="684" width="1" height="901"/>
  <rect class="a" x="702" width="1" height="901"/>
  <rect class="a" x="720" width="1" height="901"/>
  <rect class="a" x="738" width="1" height="901"/>
  <rect class="a" x="756" width="1" height="901"/>
  <rect class="a" x="774" width="1" height="901"/>
  <rect class="a" x="792" width="1" height="901"/>
  <rect class="a" x="810" width="1" height="901"/>
  <rect class="a" x="828" width="1" height="901"/>
  <rect class="a" x="846" width="1" height="901"/>
  <rect class="a" x="864" width="1" height="901"/>
  <rect class="a" x="882" width="1" height="901"/>
  <rect class="a" x="900" width="1" height="901"/>
</svg>
