<?xml version="1.0" standalone="no"?>
<!DOCTYPE svg PUBLIC "-//W3C//DTD SVG 20010904//EN"
 "http://www.w3.org/TR/2001/REC-SVG-20010904/DTD/svg10.dtd">
<svg version="1.0" xmlns="http://www.w3.org/2000/svg"
 width="546.000000pt" height="546.000000pt" viewBox="0 0 546.000000 546.000000"
 preserveAspectRatio="xMidYMid meet">
<metadata>
Created by potrace 1.14, written by Peter Selinger 2001-2017
</metadata>
<g transform="translate(0.000000,546.000000) scale(0.100000,-0.100000)"
fill="#000000" stroke="none">
<path d="M1220 5454 c-546 -67 -984 -422 -1154 -934 -48 -145 -66 -266 -66
-436 0 -374 143 -714 412 -976 205 -200 459 -326 753 -373 70 -11 0 -13 -542
-14 l-623 -1 0 -1360 0 -1360 183 0 c192 0 286 11 462 54 1114 272 1934 1205
2060 2346 11 98 13 -66 14 -1142 l1 -1258 690 0 690 0 0 1360 0 1360 -1307 2
c-720 0 -1292 3 -1273 5 280 30 584 172 792 372 178 169 303 377 375 623 25
87 27 109 31 323 4 256 -3 327 -50 470 -153 470 -548 821 -1038 920 -73 15
-341 27 -410 19z"/>
<path d="M4082 4093 l1367 -1368 4 -85 c1 -47 4 569 5 1368 l2 1452 -1372 0
-1373 0 1367 -1367z"/>
</g>
</svg>
